<?xml version="1.0" encoding="utf-8" standalone="no"?>
<!DOCTYPE svg PUBLIC "-//W3C//DTD SVG 1.1//EN"
  "http://www.w3.org/Graphics/SVG/1.1/DTD/svg11.dtd">
<svg height="288pt" version="1.1" viewBox="0 0 432 288" width="432pt" xmlns="http://www.w3.org/2000/svg" xmlns:xlink="http://www.w3.org/1999/xlink">
 <metadata>
  <rdf:RDF xmlns:cc="http://creativecommons.org/ns#" xmlns:dc="http://purl.org/dc/elements/1.1/" xmlns:rdf="http://www.w3.org/1999/02/22-rdf-syntax-ns#">
   <cc:Work>
    <dc:type rdf:resource="http://purl.org/dc/dcmitype/StillImage"/>
    <dc:date>2021-09-23T13:03:23.512475</dc:date>
    <dc:format>image/svg+xml</dc:format>
    <dc:creator>
     <cc:Agent>
      <dc:title>Matplotlib v3.4.2, https://matplotlib.org/</dc:title>
     </cc:Agent>
    </dc:creator>
   </cc:Work>
  </rdf:RDF>
 </metadata>
 <defs>
  <style type="text/css">*{stroke-linecap:butt;stroke-linejoin:round;}</style>
 </defs>
 <g id="figure_1">
  <g id="patch_1">
   <path d="M 0 288 
L 432 288 
L 432 0 
L 0 0 
z
" style="fill:none;"/>
  </g>
  <g id="axes_1">
   <g id="patch_2">
    <path d="M 54 252 
L 388.8 252 
L 388.8 34.56 
L 54 34.56 
z
" style="fill:#ffffff;"/>
   </g>
   <g id="matplotlib.axis_1">
    <g id="xtick_1">
     <g id="line2d_1">
      <path clip-path="url(#p33d1240dad)" d="M 61.971429 252 
L 61.971429 34.56 
" style="fill:none;stroke:#b0b0b0;stroke-linecap:square;stroke-width:0.8;"/>
     </g>
     <g id="line2d_2">
      <defs>
       <path d="M 0 0 
L 0 3.5 
" id="m278aaf9773" style="stroke:#000000;stroke-width:0.8;"/>
      </defs>
      <g>
       <use style="stroke:#000000;stroke-width:0.8;" x="61.971429" xlink:href="#m278aaf9773" y="252"/>
      </g>
     </g>
     <g id="text_1">
      <!-- −1.00 -->
      <g transform="translate(46.648772 266.598437)scale(0.1 -0.1)">
       <defs>
        <path d="M 678 2272 
L 4684 2272 
L 4684 1741 
L 678 1741 
L 678 2272 
z
" id="DejaVuSans-2212" transform="scale(0.015625)"/>
        <path d="M 794 531 
L 1825 531 
L 1825 4091 
L 703 3866 
L 703 4441 
L 1819 4666 
L 2450 4666 
L 2450 531 
L 3481 531 
L 3481 0 
L 794 0 
L 794 531 
z
" id="DejaVuSans-31" transform="scale(0.015625)"/>
        <path d="M 684 794 
L 1344 794 
L 1344 0 
L 684 0 
L 684 794 
z
" id="DejaVuSans-2e" transform="scale(0.015625)"/>
        <path d="M 2034 4250 
Q 1547 4250 1301 3770 
Q 1056 3291 1056 2328 
Q 1056 1369 1301 889 
Q 1547 409 2034 409 
Q 2525 409 2770 889 
Q 3016 1369 3016 2328 
Q 3016 3291 2770 3770 
Q 2525 4250 2034 4250 
z
M 2034 4750 
Q 2819 4750 3233 4129 
Q 3647 3509 3647 2328 
Q 3647 1150 3233 529 
Q 2819 -91 2034 -91 
Q 1250 -91 836 529 
Q 422 1150 422 2328 
Q 422 3509 836 4129 
Q 1250 4750 2034 4750 
z
" id="DejaVuSans-30" transform="scale(0.015625)"/>
       </defs>
       <use xlink:href="#DejaVuSans-2212"/>
       <use x="83.789062" xlink:href="#DejaVuSans-31"/>
       <use x="147.412109" xlink:href="#DejaVuSans-2e"/>
       <use x="179.199219" xlink:href="#DejaVuSans-30"/>
       <use x="242.822266" xlink:href="#DejaVuSans-30"/>
      </g>
     </g>
    </g>
    <g id="xtick_2">
     <g id="line2d_3">
      <path clip-path="url(#p33d1240dad)" d="M 101.828571 252 
L 101.828571 34.56 
" style="fill:none;stroke:#b0b0b0;stroke-linecap:square;stroke-width:0.8;"/>
     </g>
     <g id="line2d_4">
      <g>
       <use style="stroke:#000000;stroke-width:0.8;" x="101.828571" xlink:href="#m278aaf9773" y="252"/>
      </g>
     </g>
     <g id="text_2">
      <!-- −0.75 -->
      <g transform="translate(86.505915 266.598437)scale(0.1 -0.1)">
       <defs>
        <path d="M 525 4666 
L 3525 4666 
L 3525 4397 
L 1831 0 
L 1172 0 
L 2766 4134 
L 525 4134 
L 525 4666 
z
" id="DejaVuSans-37" transform="scale(0.015625)"/>
        <path d="M 691 4666 
L 3169 4666 
L 3169 4134 
L 1269 4134 
L 1269 2991 
Q 1406 3038 1543 3061 
Q 1681 3084 1819 3084 
Q 2600 3084 3056 2656 
Q 3513 2228 3513 1497 
Q 3513 744 3044 326 
Q 2575 -91 1722 -91 
Q 1428 -91 1123 -41 
Q 819 9 494 109 
L 494 744 
Q 775 591 1075 516 
Q 1375 441 1709 441 
Q 2250 441 2565 725 
Q 2881 1009 2881 1497 
Q 2881 1984 2565 2268 
Q 2250 2553 1709 2553 
Q 1456 2553 1204 2497 
Q 953 2441 691 2322 
L 691 4666 
z
" id="DejaVuSans-35" transform="scale(0.015625)"/>
       </defs>
       <use xlink:href="#DejaVuSans-2212"/>
       <use x="83.789062" xlink:href="#DejaVuSans-30"/>
       <use x="147.412109" xlink:href="#DejaVuSans-2e"/>
       <use x="179.199219" xlink:href="#DejaVuSans-37"/>
       <use x="242.822266" xlink:href="#DejaVuSans-35"/>
      </g>
     </g>
    </g>
    <g id="xtick_3">
     <g id="line2d_5">
      <path clip-path="url(#p33d1240dad)" d="M 141.685714 252 
L 141.685714 34.56 
" style="fill:none;stroke:#b0b0b0;stroke-linecap:square;stroke-width:0.8;"/>
     </g>
     <g id="line2d_6">
      <g>
       <use style="stroke:#000000;stroke-width:0.8;" x="141.685714" xlink:href="#m278aaf9773" y="252"/>
      </g>
     </g>
     <g id="text_3">
      <!-- −0.50 -->
      <g transform="translate(126.363058 266.598437)scale(0.1 -0.1)">
       <use xlink:href="#DejaVuSans-2212"/>
       <use x="83.789062" xlink:href="#DejaVuSans-30"/>
       <use x="147.412109" xlink:href="#DejaVuSans-2e"/>
       <use x="179.199219" xlink:href="#DejaVuSans-35"/>
       <use x="242.822266" xlink:href="#DejaVuSans-30"/>
      </g>
     </g>
    </g>
    <g id="xtick_4">
     <g id="line2d_7">
      <path clip-path="url(#p33d1240dad)" d="M 181.542857 252 
L 181.542857 34.56 
" style="fill:none;stroke:#b0b0b0;stroke-linecap:square;stroke-width:0.8;"/>
     </g>
     <g id="line2d_8">
      <g>
       <use style="stroke:#000000;stroke-width:0.8;" x="181.542857" xlink:href="#m278aaf9773" y="252"/>
      </g>
     </g>
     <g id="text_4">
      <!-- −0.25 -->
      <g transform="translate(166.220201 266.598437)scale(0.1 -0.1)">
       <defs>
        <path d="M 1228 531 
L 3431 531 
L 3431 0 
L 469 0 
L 469 531 
Q 828 903 1448 1529 
Q 2069 2156 2228 2338 
Q 2531 2678 2651 2914 
Q 2772 3150 2772 3378 
Q 2772 3750 2511 3984 
Q 2250 4219 1831 4219 
Q 1534 4219 1204 4116 
Q 875 4013 500 3803 
L 500 4441 
Q 881 4594 1212 4672 
Q 1544 4750 1819 4750 
Q 2544 4750 2975 4387 
Q 3406 4025 3406 3419 
Q 3406 3131 3298 2873 
Q 3191 2616 2906 2266 
Q 2828 2175 2409 1742 
Q 1991 1309 1228 531 
z
" id="DejaVuSans-32" transform="scale(0.015625)"/>
       </defs>
       <use xlink:href="#DejaVuSans-2212"/>
       <use x="83.789062" xlink:href="#DejaVuSans-30"/>
       <use x="147.412109" xlink:href="#DejaVuSans-2e"/>
       <use x="179.199219" xlink:href="#DejaVuSans-32"/>
       <use x="242.822266" xlink:href="#DejaVuSans-35"/>
      </g>
     </g>
    </g>
    <g id="xtick_5">
     <g id="line2d_9">
      <path clip-path="url(#p33d1240dad)" d="M 221.4 252 
L 221.4 34.56 
" style="fill:none;stroke:#b0b0b0;stroke-linecap:square;stroke-width:0.8;"/>
     </g>
     <g id="line2d_10">
      <g>
       <use style="stroke:#000000;stroke-width:0.8;" x="221.4" xlink:href="#m278aaf9773" y="252"/>
      </g>
     </g>
     <g id="text_5">
      <!-- 0.00 -->
      <g transform="translate(210.267188 266.598437)scale(0.1 -0.1)">
       <use xlink:href="#DejaVuSans-30"/>
       <use x="63.623047" xlink:href="#DejaVuSans-2e"/>
       <use x="95.410156" xlink:href="#DejaVuSans-30"/>
       <use x="159.033203" xlink:href="#DejaVuSans-30"/>
      </g>
     </g>
    </g>
    <g id="xtick_6">
     <g id="line2d_11">
      <path clip-path="url(#p33d1240dad)" d="M 261.257143 252 
L 261.257143 34.56 
" style="fill:none;stroke:#b0b0b0;stroke-linecap:square;stroke-width:0.8;"/>
     </g>
     <g id="line2d_12">
      <g>
       <use style="stroke:#000000;stroke-width:0.8;" x="261.257143" xlink:href="#m278aaf9773" y="252"/>
      </g>
     </g>
     <g id="text_6">
      <!-- 0.25 -->
      <g transform="translate(250.12433 266.598437)scale(0.1 -0.1)">
       <use xlink:href="#DejaVuSans-30"/>
       <use x="63.623047" xlink:href="#DejaVuSans-2e"/>
       <use x="95.410156" xlink:href="#DejaVuSans-32"/>
       <use x="159.033203" xlink:href="#DejaVuSans-35"/>
      </g>
     </g>
    </g>
    <g id="xtick_7">
     <g id="line2d_13">
      <path clip-path="url(#p33d1240dad)" d="M 301.114286 252 
L 301.114286 34.56 
" style="fill:none;stroke:#b0b0b0;stroke-linecap:square;stroke-width:0.8;"/>
     </g>
     <g id="line2d_14">
      <g>
       <use style="stroke:#000000;stroke-width:0.8;" x="301.114286" xlink:href="#m278aaf9773" y="252"/>
      </g>
     </g>
     <g id="text_7">
      <!-- 0.50 -->
      <g transform="translate(289.981473 266.598437)scale(0.1 -0.1)">
       <use xlink:href="#DejaVuSans-30"/>
       <use x="63.623047" xlink:href="#DejaVuSans-2e"/>
       <use x="95.410156" xlink:href="#DejaVuSans-35"/>
       <use x="159.033203" xlink:href="#DejaVuSans-30"/>
      </g>
     </g>
    </g>
    <g id="xtick_8">
     <g id="line2d_15">
      <path clip-path="url(#p33d1240dad)" d="M 340.971429 252 
L 340.971429 34.56 
" style="fill:none;stroke:#b0b0b0;stroke-linecap:square;stroke-width:0.8;"/>
     </g>
     <g id="line2d_16">
      <g>
       <use style="stroke:#000000;stroke-width:0.8;" x="340.971429" xlink:href="#m278aaf9773" y="252"/>
      </g>
     </g>
     <g id="text_8">
      <!-- 0.75 -->
      <g transform="translate(329.838616 266.598437)scale(0.1 -0.1)">
       <use xlink:href="#DejaVuSans-30"/>
       <use x="63.623047" xlink:href="#DejaVuSans-2e"/>
       <use x="95.410156" xlink:href="#DejaVuSans-37"/>
       <use x="159.033203" xlink:href="#DejaVuSans-35"/>
      </g>
     </g>
    </g>
    <g id="xtick_9">
     <g id="line2d_17">
      <path clip-path="url(#p33d1240dad)" d="M 380.828571 252 
L 380.828571 34.56 
" style="fill:none;stroke:#b0b0b0;stroke-linecap:square;stroke-width:0.8;"/>
     </g>
     <g id="line2d_18">
      <g>
       <use style="stroke:#000000;stroke-width:0.8;" x="380.828571" xlink:href="#m278aaf9773" y="252"/>
      </g>
     </g>
     <g id="text_9">
      <!-- 1.00 -->
      <g transform="translate(369.695759 266.598437)scale(0.1 -0.1)">
       <use xlink:href="#DejaVuSans-31"/>
       <use x="63.623047" xlink:href="#DejaVuSans-2e"/>
       <use x="95.410156" xlink:href="#DejaVuSans-30"/>
       <use x="159.033203" xlink:href="#DejaVuSans-30"/>
      </g>
     </g>
    </g>
    <g id="text_10">
     <!-- x -->
     <g transform="translate(217.256875 283.315938)scale(0.14 -0.14)">
      <defs>
       <path d="M 3513 3500 
L 2247 1797 
L 3578 0 
L 2900 0 
L 1881 1375 
L 863 0 
L 184 0 
L 1544 1831 
L 300 3500 
L 978 3500 
L 1906 2253 
L 2834 3500 
L 3513 3500 
z
" id="DejaVuSans-78" transform="scale(0.015625)"/>
      </defs>
      <use xlink:href="#DejaVuSans-78"/>
     </g>
    </g>
   </g>
   <g id="matplotlib.axis_2">
    <g id="ytick_1">
     <g id="line2d_19">
      <path clip-path="url(#p33d1240dad)" d="M 54 252 
L 388.8 252 
" style="fill:none;stroke:#b0b0b0;stroke-linecap:square;stroke-width:0.8;"/>
     </g>
     <g id="line2d_20">
      <defs>
       <path d="M 0 0 
L -3.5 0 
" id="md7b2ebfd02" style="stroke:#000000;stroke-width:0.8;"/>
      </defs>
      <g>
       <use style="stroke:#000000;stroke-width:0.8;" x="54" xlink:href="#md7b2ebfd02" y="252"/>
      </g>
     </g>
     <g id="text_11">
      <!-- 0.0 -->
      <g transform="translate(31.096875 255.799219)scale(0.1 -0.1)">
       <use xlink:href="#DejaVuSans-30"/>
       <use x="63.623047" xlink:href="#DejaVuSans-2e"/>
       <use x="95.410156" xlink:href="#DejaVuSans-30"/>
      </g>
     </g>
    </g>
    <g id="ytick_2">
     <g id="line2d_21">
      <path clip-path="url(#p33d1240dad)" d="M 54 208.512 
L 388.8 208.512 
" style="fill:none;stroke:#b0b0b0;stroke-linecap:square;stroke-width:0.8;"/>
     </g>
     <g id="line2d_22">
      <g>
       <use style="stroke:#000000;stroke-width:0.8;" x="54" xlink:href="#md7b2ebfd02" y="208.512"/>
      </g>
     </g>
     <g id="text_12">
      <!-- 0.2 -->
      <g transform="translate(31.096875 212.311219)scale(0.1 -0.1)">
       <use xlink:href="#DejaVuSans-30"/>
       <use x="63.623047" xlink:href="#DejaVuSans-2e"/>
       <use x="95.410156" xlink:href="#DejaVuSans-32"/>
      </g>
     </g>
    </g>
    <g id="ytick_3">
     <g id="line2d_23">
      <path clip-path="url(#p33d1240dad)" d="M 54 165.024 
L 388.8 165.024 
" style="fill:none;stroke:#b0b0b0;stroke-linecap:square;stroke-width:0.8;"/>
     </g>
     <g id="line2d_24">
      <g>
       <use style="stroke:#000000;stroke-width:0.8;" x="54" xlink:href="#md7b2ebfd02" y="165.024"/>
      </g>
     </g>
     <g id="text_13">
      <!-- 0.4 -->
      <g transform="translate(31.096875 168.823219)scale(0.1 -0.1)">
       <defs>
        <path d="M 2419 4116 
L 825 1625 
L 2419 1625 
L 2419 4116 
z
M 2253 4666 
L 3047 4666 
L 3047 1625 
L 3713 1625 
L 3713 1100 
L 3047 1100 
L 3047 0 
L 2419 0 
L 2419 1100 
L 313 1100 
L 313 1709 
L 2253 4666 
z
" id="DejaVuSans-34" transform="scale(0.015625)"/>
       </defs>
       <use xlink:href="#DejaVuSans-30"/>
       <use x="63.623047" xlink:href="#DejaVuSans-2e"/>
       <use x="95.410156" xlink:href="#DejaVuSans-34"/>
      </g>
     </g>
    </g>
    <g id="ytick_4">
     <g id="line2d_25">
      <path clip-path="url(#p33d1240dad)" d="M 54 121.536 
L 388.8 121.536 
" style="fill:none;stroke:#b0b0b0;stroke-linecap:square;stroke-width:0.8;"/>
     </g>
     <g id="line2d_26">
      <g>
       <use style="stroke:#000000;stroke-width:0.8;" x="54" xlink:href="#md7b2ebfd02" y="121.536"/>
      </g>
     </g>
     <g id="text_14">
      <!-- 0.6 -->
      <g transform="translate(31.096875 125.335219)scale(0.1 -0.1)">
       <defs>
        <path d="M 2113 2584 
Q 1688 2584 1439 2293 
Q 1191 2003 1191 1497 
Q 1191 994 1439 701 
Q 1688 409 2113 409 
Q 2538 409 2786 701 
Q 3034 994 3034 1497 
Q 3034 2003 2786 2293 
Q 2538 2584 2113 2584 
z
M 3366 4563 
L 3366 3988 
Q 3128 4100 2886 4159 
Q 2644 4219 2406 4219 
Q 1781 4219 1451 3797 
Q 1122 3375 1075 2522 
Q 1259 2794 1537 2939 
Q 1816 3084 2150 3084 
Q 2853 3084 3261 2657 
Q 3669 2231 3669 1497 
Q 3669 778 3244 343 
Q 2819 -91 2113 -91 
Q 1303 -91 875 529 
Q 447 1150 447 2328 
Q 447 3434 972 4092 
Q 1497 4750 2381 4750 
Q 2619 4750 2861 4703 
Q 3103 4656 3366 4563 
z
" id="DejaVuSans-36" transform="scale(0.015625)"/>
       </defs>
       <use xlink:href="#DejaVuSans-30"/>
       <use x="63.623047" xlink:href="#DejaVuSans-2e"/>
       <use x="95.410156" xlink:href="#DejaVuSans-36"/>
      </g>
     </g>
    </g>
    <g id="ytick_5">
     <g id="line2d_27">
      <path clip-path="url(#p33d1240dad)" d="M 54 78.048 
L 388.8 78.048 
" style="fill:none;stroke:#b0b0b0;stroke-linecap:square;stroke-width:0.8;"/>
     </g>
     <g id="line2d_28">
      <g>
       <use style="stroke:#000000;stroke-width:0.8;" x="54" xlink:href="#md7b2ebfd02" y="78.048"/>
      </g>
     </g>
     <g id="text_15">
      <!-- 0.8 -->
      <g transform="translate(31.096875 81.847219)scale(0.1 -0.1)">
       <defs>
        <path d="M 2034 2216 
Q 1584 2216 1326 1975 
Q 1069 1734 1069 1313 
Q 1069 891 1326 650 
Q 1584 409 2034 409 
Q 2484 409 2743 651 
Q 3003 894 3003 1313 
Q 3003 1734 2745 1975 
Q 2488 2216 2034 2216 
z
M 1403 2484 
Q 997 2584 770 2862 
Q 544 3141 544 3541 
Q 544 4100 942 4425 
Q 1341 4750 2034 4750 
Q 2731 4750 3128 4425 
Q 3525 4100 3525 3541 
Q 3525 3141 3298 2862 
Q 3072 2584 2669 2484 
Q 3125 2378 3379 2068 
Q 3634 1759 3634 1313 
Q 3634 634 3220 271 
Q 2806 -91 2034 -91 
Q 1263 -91 848 271 
Q 434 634 434 1313 
Q 434 1759 690 2068 
Q 947 2378 1403 2484 
z
M 1172 3481 
Q 1172 3119 1398 2916 
Q 1625 2713 2034 2713 
Q 2441 2713 2670 2916 
Q 2900 3119 2900 3481 
Q 2900 3844 2670 4047 
Q 2441 4250 2034 4250 
Q 1625 4250 1398 4047 
Q 1172 3844 1172 3481 
z
" id="DejaVuSans-38" transform="scale(0.015625)"/>
       </defs>
       <use xlink:href="#DejaVuSans-30"/>
       <use x="63.623047" xlink:href="#DejaVuSans-2e"/>
       <use x="95.410156" xlink:href="#DejaVuSans-38"/>
      </g>
     </g>
    </g>
    <g id="ytick_6">
     <g id="line2d_29">
      <path clip-path="url(#p33d1240dad)" d="M 54 34.56 
L 388.8 34.56 
" style="fill:none;stroke:#b0b0b0;stroke-linecap:square;stroke-width:0.8;"/>
     </g>
     <g id="line2d_30">
      <g>
       <use style="stroke:#000000;stroke-width:0.8;" x="54" xlink:href="#md7b2ebfd02" y="34.56"/>
      </g>
     </g>
     <g id="text_16">
      <!-- 1.0 -->
      <g transform="translate(31.096875 38.359219)scale(0.1 -0.1)">
       <use xlink:href="#DejaVuSans-31"/>
       <use x="63.623047" xlink:href="#DejaVuSans-2e"/>
       <use x="95.410156" xlink:href="#DejaVuSans-30"/>
      </g>
     </g>
    </g>
    <g id="text_17">
     <!-- b-value -->
     <g transform="translate(24.185312 169.186563)rotate(-90)scale(0.14 -0.14)">
      <defs>
       <path d="M 3116 1747 
Q 3116 2381 2855 2742 
Q 2594 3103 2138 3103 
Q 1681 3103 1420 2742 
Q 1159 2381 1159 1747 
Q 1159 1113 1420 752 
Q 1681 391 2138 391 
Q 2594 391 2855 752 
Q 3116 1113 3116 1747 
z
M 1159 2969 
Q 1341 3281 1617 3432 
Q 1894 3584 2278 3584 
Q 2916 3584 3314 3078 
Q 3713 2572 3713 1747 
Q 3713 922 3314 415 
Q 2916 -91 2278 -91 
Q 1894 -91 1617 61 
Q 1341 213 1159 525 
L 1159 0 
L 581 0 
L 581 4863 
L 1159 4863 
L 1159 2969 
z
" id="DejaVuSans-62" transform="scale(0.015625)"/>
       <path d="M 313 2009 
L 1997 2009 
L 1997 1497 
L 313 1497 
L 313 2009 
z
" id="DejaVuSans-2d" transform="scale(0.015625)"/>
       <path d="M 191 3500 
L 800 3500 
L 1894 563 
L 2988 3500 
L 3597 3500 
L 2284 0 
L 1503 0 
L 191 3500 
z
" id="DejaVuSans-76" transform="scale(0.015625)"/>
       <path d="M 2194 1759 
Q 1497 1759 1228 1600 
Q 959 1441 959 1056 
Q 959 750 1161 570 
Q 1363 391 1709 391 
Q 2188 391 2477 730 
Q 2766 1069 2766 1631 
L 2766 1759 
L 2194 1759 
z
M 3341 1997 
L 3341 0 
L 2766 0 
L 2766 531 
Q 2569 213 2275 61 
Q 1981 -91 1556 -91 
Q 1019 -91 701 211 
Q 384 513 384 1019 
Q 384 1609 779 1909 
Q 1175 2209 1959 2209 
L 2766 2209 
L 2766 2266 
Q 2766 2663 2505 2880 
Q 2244 3097 1772 3097 
Q 1472 3097 1187 3025 
Q 903 2953 641 2809 
L 641 3341 
Q 956 3463 1253 3523 
Q 1550 3584 1831 3584 
Q 2591 3584 2966 3190 
Q 3341 2797 3341 1997 
z
" id="DejaVuSans-61" transform="scale(0.015625)"/>
       <path d="M 603 4863 
L 1178 4863 
L 1178 0 
L 603 0 
L 603 4863 
z
" id="DejaVuSans-6c" transform="scale(0.015625)"/>
       <path d="M 544 1381 
L 544 3500 
L 1119 3500 
L 1119 1403 
Q 1119 906 1312 657 
Q 1506 409 1894 409 
Q 2359 409 2629 706 
Q 2900 1003 2900 1516 
L 2900 3500 
L 3475 3500 
L 3475 0 
L 2900 0 
L 2900 538 
Q 2691 219 2414 64 
Q 2138 -91 1772 -91 
Q 1169 -91 856 284 
Q 544 659 544 1381 
z
M 1991 3584 
L 1991 3584 
z
" id="DejaVuSans-75" transform="scale(0.015625)"/>
       <path d="M 3597 1894 
L 3597 1613 
L 953 1613 
Q 991 1019 1311 708 
Q 1631 397 2203 397 
Q 2534 397 2845 478 
Q 3156 559 3463 722 
L 3463 178 
Q 3153 47 2828 -22 
Q 2503 -91 2169 -91 
Q 1331 -91 842 396 
Q 353 884 353 1716 
Q 353 2575 817 3079 
Q 1281 3584 2069 3584 
Q 2775 3584 3186 3129 
Q 3597 2675 3597 1894 
z
M 3022 2063 
Q 3016 2534 2758 2815 
Q 2500 3097 2075 3097 
Q 1594 3097 1305 2825 
Q 1016 2553 972 2059 
L 3022 2063 
z
" id="DejaVuSans-65" transform="scale(0.015625)"/>
      </defs>
      <use xlink:href="#DejaVuSans-62"/>
      <use x="63.476562" xlink:href="#DejaVuSans-2d"/>
      <use x="96.935547" xlink:href="#DejaVuSans-76"/>
      <use x="156.115234" xlink:href="#DejaVuSans-61"/>
      <use x="217.394531" xlink:href="#DejaVuSans-6c"/>
      <use x="245.177734" xlink:href="#DejaVuSans-75"/>
      <use x="308.556641" xlink:href="#DejaVuSans-65"/>
     </g>
    </g>
   </g>
   <g id="LineCollection_1">
    <path clip-path="url(#p33d1240dad)" d="M 129.353871 252 
L 129.353871 34.56 
" style="fill:none;stroke:#008000;stroke-width:1.5;"/>
    <path clip-path="url(#p33d1240dad)" d="M 313.446129 252 
L 313.446129 34.56 
" style="fill:none;stroke:#008000;stroke-width:1.5;"/>
   </g>
   <g id="line2d_31">
    <defs>
     <path d="M 0 1.5 
C 0.397805 1.5 0.77937 1.341951 1.06066 1.06066 
C 1.341951 0.77937 1.5 0.397805 1.5 0 
C 1.5 -0.397805 1.341951 -0.77937 1.06066 -1.06066 
C 0.77937 -1.341951 0.397805 -1.5 0 -1.5 
C -0.397805 -1.5 -0.77937 -1.341951 -1.06066 -1.06066 
C -1.341951 -0.77937 -1.5 -0.397805 -1.5 0 
C -1.5 0.397805 -1.341951 0.77937 -1.06066 1.06066 
C -0.77937 1.341951 -0.397805 1.5 0 1.5 
z
" id="m2437bf3eb2" style="stroke:#ff0000;"/>
    </defs>
    <g clip-path="url(#p33d1240dad)">
     <use style="fill:#ff0000;stroke:#ff0000;" x="326.983941" xlink:href="#m2437bf3eb2" y="36.7344"/>
     <use style="fill:#ff0000;stroke:#ff0000;" x="115.816063" xlink:href="#m2437bf3eb2" y="36.7344"/>
    </g>
   </g>
   <g id="line2d_32">
    <g clip-path="url(#p33d1240dad)">
     <use style="fill:#ff0000;stroke:#ff0000;" x="326.469285" xlink:href="#m2437bf3eb2" y="38.9088"/>
     <use style="fill:#ff0000;stroke:#ff0000;" x="116.335037" xlink:href="#m2437bf3eb2" y="38.9088"/>
    </g>
   </g>
   <g id="line2d_33">
    <g clip-path="url(#p33d1240dad)">
     <use style="fill:#ff0000;stroke:#ff0000;" x="116.821261" xlink:href="#m2437bf3eb2" y="41.0832"/>
     <use style="fill:#ff0000;stroke:#ff0000;" x="325.974708" xlink:href="#m2437bf3eb2" y="41.0832"/>
    </g>
   </g>
   <g id="line2d_34">
    <g clip-path="url(#p33d1240dad)">
     <use style="fill:#ff0000;stroke:#ff0000;" x="117.282797" xlink:href="#m2437bf3eb2" y="43.2576"/>
     <use style="fill:#ff0000;stroke:#ff0000;" x="325.511772" xlink:href="#m2437bf3eb2" y="43.2576"/>
    </g>
   </g>
   <g id="line2d_35">
    <g clip-path="url(#p33d1240dad)">
     <use style="fill:#ff0000;stroke:#ff0000;" x="117.722356" xlink:href="#m2437bf3eb2" y="45.432"/>
     <use style="fill:#ff0000;stroke:#ff0000;" x="325.073733" xlink:href="#m2437bf3eb2" y="45.432"/>
    </g>
   </g>
   <g id="line2d_36">
    <g clip-path="url(#p33d1240dad)">
     <use style="fill:#ff0000;stroke:#ff0000;" x="118.139559" xlink:href="#m2437bf3eb2" y="47.6064"/>
     <use style="fill:#ff0000;stroke:#ff0000;" x="324.655089" xlink:href="#m2437bf3eb2" y="47.6064"/>
    </g>
   </g>
   <g id="line2d_37">
    <g clip-path="url(#p33d1240dad)">
     <use style="fill:#ff0000;stroke:#ff0000;" x="324.258611" xlink:href="#m2437bf3eb2" y="49.7808"/>
     <use style="fill:#ff0000;stroke:#ff0000;" x="118.540996" xlink:href="#m2437bf3eb2" y="49.7808"/>
    </g>
   </g>
   <g id="line2d_38">
    <g clip-path="url(#p33d1240dad)">
     <use style="fill:#ff0000;stroke:#ff0000;" x="118.921992" xlink:href="#m2437bf3eb2" y="51.9552"/>
     <use style="fill:#ff0000;stroke:#ff0000;" x="323.882958" xlink:href="#m2437bf3eb2" y="51.9552"/>
    </g>
   </g>
   <g id="line2d_39">
    <g clip-path="url(#p33d1240dad)">
     <use style="fill:#ff0000;stroke:#ff0000;" x="119.279736" xlink:href="#m2437bf3eb2" y="54.1296"/>
     <use style="fill:#ff0000;stroke:#ff0000;" x="323.516085" xlink:href="#m2437bf3eb2" y="54.1296"/>
    </g>
   </g>
   <g id="line2d_40">
    <g clip-path="url(#p33d1240dad)">
     <use style="fill:#ff0000;stroke:#ff0000;" x="119.631933" xlink:href="#m2437bf3eb2" y="56.304"/>
     <use style="fill:#ff0000;stroke:#ff0000;" x="323.172398" xlink:href="#m2437bf3eb2" y="56.304"/>
    </g>
   </g>
   <g id="line2d_41">
    <g clip-path="url(#p33d1240dad)">
     <use style="fill:#ff0000;stroke:#ff0000;" x="322.839066" xlink:href="#m2437bf3eb2" y="58.4784"/>
     <use style="fill:#ff0000;stroke:#ff0000;" x="119.964542" xlink:href="#m2437bf3eb2" y="58.4784"/>
    </g>
   </g>
   <g id="line2d_42">
    <g clip-path="url(#p33d1240dad)">
     <use style="fill:#ff0000;stroke:#ff0000;" x="120.282526" xlink:href="#m2437bf3eb2" y="60.6528"/>
     <use style="fill:#ff0000;stroke:#ff0000;" x="322.514988" xlink:href="#m2437bf3eb2" y="60.6528"/>
    </g>
   </g>
   <g id="line2d_43">
    <g clip-path="url(#p33d1240dad)">
     <use style="fill:#ff0000;stroke:#ff0000;" x="322.213893" xlink:href="#m2437bf3eb2" y="62.8272"/>
     <use style="fill:#ff0000;stroke:#ff0000;" x="120.59133" xlink:href="#m2437bf3eb2" y="62.8272"/>
    </g>
   </g>
   <g id="line2d_44">
    <g clip-path="url(#p33d1240dad)">
     <use style="fill:#ff0000;stroke:#ff0000;" x="120.889521" xlink:href="#m2437bf3eb2" y="65.0016"/>
     <use style="fill:#ff0000;stroke:#ff0000;" x="321.915645" xlink:href="#m2437bf3eb2" y="65.0016"/>
    </g>
   </g>
   <g id="line2d_45">
    <g clip-path="url(#p33d1240dad)">
     <use style="fill:#ff0000;stroke:#ff0000;" x="121.169593" xlink:href="#m2437bf3eb2" y="67.176"/>
     <use style="fill:#ff0000;stroke:#ff0000;" x="321.626437" xlink:href="#m2437bf3eb2" y="67.176"/>
    </g>
   </g>
   <g id="line2d_46">
    <g clip-path="url(#p33d1240dad)">
     <use style="fill:#ff0000;stroke:#ff0000;" x="321.356358" xlink:href="#m2437bf3eb2" y="69.3504"/>
     <use style="fill:#ff0000;stroke:#ff0000;" x="121.444507" xlink:href="#m2437bf3eb2" y="69.3504"/>
    </g>
   </g>
   <g id="line2d_47">
    <g clip-path="url(#p33d1240dad)">
     <use style="fill:#ff0000;stroke:#ff0000;" x="121.707084" xlink:href="#m2437bf3eb2" y="71.5248"/>
     <use style="fill:#ff0000;stroke:#ff0000;" x="321.08717" xlink:href="#m2437bf3eb2" y="71.5248"/>
    </g>
   </g>
   <g id="line2d_48">
    <g clip-path="url(#p33d1240dad)">
     <use style="fill:#ff0000;stroke:#ff0000;" x="121.964118" xlink:href="#m2437bf3eb2" y="73.6992"/>
     <use style="fill:#ff0000;stroke:#ff0000;" x="320.831987" xlink:href="#m2437bf3eb2" y="73.6992"/>
    </g>
   </g>
   <g id="line2d_49">
    <g clip-path="url(#p33d1240dad)">
     <use style="fill:#ff0000;stroke:#ff0000;" x="122.212666" xlink:href="#m2437bf3eb2" y="75.8736"/>
     <use style="fill:#ff0000;stroke:#ff0000;" x="320.584823" xlink:href="#m2437bf3eb2" y="75.8736"/>
    </g>
   </g>
   <g id="line2d_50">
    <g clip-path="url(#p33d1240dad)">
     <use style="fill:#ff0000;stroke:#ff0000;" x="320.344226" xlink:href="#m2437bf3eb2" y="78.048"/>
     <use style="fill:#ff0000;stroke:#ff0000;" x="122.449999" xlink:href="#m2437bf3eb2" y="78.048"/>
    </g>
   </g>
   <g id="line2d_51">
    <g clip-path="url(#p33d1240dad)">
     <use style="fill:#ff0000;stroke:#ff0000;" x="122.686865" xlink:href="#m2437bf3eb2" y="80.2224"/>
     <use style="fill:#ff0000;stroke:#ff0000;" x="320.119529" xlink:href="#m2437bf3eb2" y="80.2224"/>
    </g>
   </g>
   <g id="line2d_52">
    <g clip-path="url(#p33d1240dad)">
     <use style="fill:#ff0000;stroke:#ff0000;" x="319.888099" xlink:href="#m2437bf3eb2" y="82.3968"/>
     <use style="fill:#ff0000;stroke:#ff0000;" x="122.903901" xlink:href="#m2437bf3eb2" y="82.3968"/>
    </g>
   </g>
   <g id="line2d_53">
    <g clip-path="url(#p33d1240dad)">
     <use style="fill:#ff0000;stroke:#ff0000;" x="123.126726" xlink:href="#m2437bf3eb2" y="84.5712"/>
     <use style="fill:#ff0000;stroke:#ff0000;" x="319.679129" xlink:href="#m2437bf3eb2" y="84.5712"/>
    </g>
   </g>
   <g id="line2d_54">
    <g clip-path="url(#p33d1240dad)">
     <use style="fill:#ff0000;stroke:#ff0000;" x="319.467611" xlink:href="#m2437bf3eb2" y="86.7456"/>
     <use style="fill:#ff0000;stroke:#ff0000;" x="123.334651" xlink:href="#m2437bf3eb2" y="86.7456"/>
    </g>
   </g>
   <g id="line2d_55">
    <g clip-path="url(#p33d1240dad)">
     <use style="fill:#ff0000;stroke:#ff0000;" x="123.539431" xlink:href="#m2437bf3eb2" y="88.92"/>
     <use style="fill:#ff0000;stroke:#ff0000;" x="319.259377" xlink:href="#m2437bf3eb2" y="88.92"/>
    </g>
   </g>
   <g id="line2d_56">
    <g clip-path="url(#p33d1240dad)">
     <use style="fill:#ff0000;stroke:#ff0000;" x="319.06298" xlink:href="#m2437bf3eb2" y="91.0944"/>
     <use style="fill:#ff0000;stroke:#ff0000;" x="123.736994" xlink:href="#m2437bf3eb2" y="91.0944"/>
    </g>
   </g>
   <g id="line2d_57">
    <g clip-path="url(#p33d1240dad)">
     <use style="fill:#ff0000;stroke:#ff0000;" x="318.872177" xlink:href="#m2437bf3eb2" y="93.2688"/>
     <use style="fill:#ff0000;stroke:#ff0000;" x="123.925838" xlink:href="#m2437bf3eb2" y="93.2688"/>
    </g>
   </g>
   <g id="line2d_58">
    <g clip-path="url(#p33d1240dad)">
     <use style="fill:#ff0000;stroke:#ff0000;" x="124.112442" xlink:href="#m2437bf3eb2" y="95.4432"/>
     <use style="fill:#ff0000;stroke:#ff0000;" x="318.683065" xlink:href="#m2437bf3eb2" y="95.4432"/>
    </g>
   </g>
   <g id="line2d_59">
    <g clip-path="url(#p33d1240dad)">
     <use style="fill:#ff0000;stroke:#ff0000;" x="124.29009" xlink:href="#m2437bf3eb2" y="97.6176"/>
     <use style="fill:#ff0000;stroke:#ff0000;" x="318.501853" xlink:href="#m2437bf3eb2" y="97.6176"/>
    </g>
   </g>
   <g id="line2d_60">
    <g clip-path="url(#p33d1240dad)">
     <use style="fill:#ff0000;stroke:#ff0000;" x="124.466918" xlink:href="#m2437bf3eb2" y="99.792"/>
     <use style="fill:#ff0000;stroke:#ff0000;" x="318.329653" xlink:href="#m2437bf3eb2" y="99.792"/>
    </g>
   </g>
   <g id="line2d_61">
    <g clip-path="url(#p33d1240dad)">
     <use style="fill:#ff0000;stroke:#ff0000;" x="124.641905" xlink:href="#m2437bf3eb2" y="101.9664"/>
     <use style="fill:#ff0000;stroke:#ff0000;" x="318.159789" xlink:href="#m2437bf3eb2" y="101.9664"/>
    </g>
   </g>
   <g id="line2d_62">
    <g clip-path="url(#p33d1240dad)">
     <use style="fill:#ff0000;stroke:#ff0000;" x="124.806582" xlink:href="#m2437bf3eb2" y="104.1408"/>
     <use style="fill:#ff0000;stroke:#ff0000;" x="317.994878" xlink:href="#m2437bf3eb2" y="104.1408"/>
    </g>
   </g>
   <g id="line2d_63">
    <g clip-path="url(#p33d1240dad)">
     <use style="fill:#ff0000;stroke:#ff0000;" x="317.835553" xlink:href="#m2437bf3eb2" y="106.3152"/>
     <use style="fill:#ff0000;stroke:#ff0000;" x="124.969586" xlink:href="#m2437bf3eb2" y="106.3152"/>
    </g>
   </g>
   <g id="line2d_64">
    <g clip-path="url(#p33d1240dad)">
     <use style="fill:#ff0000;stroke:#ff0000;" x="125.119025" xlink:href="#m2437bf3eb2" y="108.4896"/>
     <use style="fill:#ff0000;stroke:#ff0000;" x="317.67439" xlink:href="#m2437bf3eb2" y="108.4896"/>
    </g>
   </g>
   <g id="line2d_65">
    <g clip-path="url(#p33d1240dad)">
     <use style="fill:#ff0000;stroke:#ff0000;" x="317.523889" xlink:href="#m2437bf3eb2" y="110.664"/>
     <use style="fill:#ff0000;stroke:#ff0000;" x="125.274482" xlink:href="#m2437bf3eb2" y="110.664"/>
    </g>
   </g>
   <g id="line2d_66">
    <g clip-path="url(#p33d1240dad)">
     <use style="fill:#ff0000;stroke:#ff0000;" x="125.421201" xlink:href="#m2437bf3eb2" y="112.8384"/>
     <use style="fill:#ff0000;stroke:#ff0000;" x="317.379588" xlink:href="#m2437bf3eb2" y="112.8384"/>
    </g>
   </g>
   <g id="line2d_67">
    <g clip-path="url(#p33d1240dad)">
     <use style="fill:#ff0000;stroke:#ff0000;" x="125.562911" xlink:href="#m2437bf3eb2" y="115.0128"/>
     <use style="fill:#ff0000;stroke:#ff0000;" x="317.230217" xlink:href="#m2437bf3eb2" y="115.0128"/>
    </g>
   </g>
   <g id="line2d_68">
    <g clip-path="url(#p33d1240dad)">
     <use style="fill:#ff0000;stroke:#ff0000;" x="317.095675" xlink:href="#m2437bf3eb2" y="117.1872"/>
     <use style="fill:#ff0000;stroke:#ff0000;" x="125.703724" xlink:href="#m2437bf3eb2" y="117.1872"/>
    </g>
   </g>
   <g id="line2d_69">
    <g clip-path="url(#p33d1240dad)">
     <use style="fill:#ff0000;stroke:#ff0000;" x="125.84191" xlink:href="#m2437bf3eb2" y="119.3616"/>
     <use style="fill:#ff0000;stroke:#ff0000;" x="316.957867" xlink:href="#m2437bf3eb2" y="119.3616"/>
    </g>
   </g>
   <g id="patch_3">
    <path d="M 54 252 
L 54 34.56 
" style="fill:none;stroke:#000000;stroke-linecap:square;stroke-linejoin:miter;stroke-width:0.8;"/>
   </g>
   <g id="patch_4">
    <path d="M 388.8 252 
L 388.8 34.56 
" style="fill:none;stroke:#000000;stroke-linecap:square;stroke-linejoin:miter;stroke-width:0.8;"/>
   </g>
   <g id="patch_5">
    <path d="M 54 252 
L 388.8 252 
" style="fill:none;stroke:#000000;stroke-linecap:square;stroke-linejoin:miter;stroke-width:0.8;"/>
   </g>
   <g id="patch_6">
    <path d="M 54 34.56 
L 388.8 34.56 
" style="fill:none;stroke:#000000;stroke-linecap:square;stroke-linejoin:miter;stroke-width:0.8;"/>
   </g>
  </g>
 </g>
 <defs>
  <clipPath id="p33d1240dad">
   <rect height="217.44" width="334.8" x="54" y="34.56"/>
  </clipPath>
 </defs>
</svg>
